<mxfile host="app.diagrams.net" modified="2023-05-16T13:56:17.619Z" agent="Mozilla/5.0 (Windows NT 10.0; Win64; x64) AppleWebKit/537.36 (KHTML, like Gecko) Chrome/113.0.0.0 Safari/537.36" etag="-VOt4aDmqGEjydAgfhRn" version="21.3.2" type="device">
  <diagram name="Page-1" id="rfFCs_Ud-8vILByw_eSw">
    <mxGraphModel dx="1434" dy="672" grid="1" gridSize="10" guides="1" tooltips="1" connect="1" arrows="1" fold="1" page="1" pageScale="1" pageWidth="850" pageHeight="1100" math="0" shadow="0">
      <root>
        <mxCell id="0" />
        <mxCell id="1" parent="0" />
        <mxCell id="EW1_BYPwLrj7KWWSWY52-11" value="" style="edgeStyle=orthogonalEdgeStyle;rounded=0;orthogonalLoop=1;jettySize=auto;html=1;" edge="1" parent="1" source="EW1_BYPwLrj7KWWSWY52-1" target="EW1_BYPwLrj7KWWSWY52-3">
          <mxGeometry relative="1" as="geometry" />
        </mxCell>
        <mxCell id="EW1_BYPwLrj7KWWSWY52-1" value="&lt;font style=&quot;font-size: 15px;&quot;&gt;Start&lt;/font&gt;" style="ellipse;whiteSpace=wrap;html=1;" vertex="1" parent="1">
          <mxGeometry x="330" y="30" width="120" height="50" as="geometry" />
        </mxCell>
        <mxCell id="EW1_BYPwLrj7KWWSWY52-10" value="" style="edgeStyle=orthogonalEdgeStyle;rounded=0;orthogonalLoop=1;jettySize=auto;html=1;" edge="1" parent="1" source="EW1_BYPwLrj7KWWSWY52-3" target="EW1_BYPwLrj7KWWSWY52-4">
          <mxGeometry relative="1" as="geometry" />
        </mxCell>
        <mxCell id="EW1_BYPwLrj7KWWSWY52-3" value="Declare variables: userAns, compAns,tie,winUser,winComp&lt;br&gt;counter=0" style="rounded=0;whiteSpace=wrap;html=1;" vertex="1" parent="1">
          <mxGeometry x="300" y="110" width="180" height="60" as="geometry" />
        </mxCell>
        <mxCell id="EW1_BYPwLrj7KWWSWY52-9" value="" style="edgeStyle=orthogonalEdgeStyle;rounded=0;orthogonalLoop=1;jettySize=auto;html=1;" edge="1" parent="1" source="EW1_BYPwLrj7KWWSWY52-4" target="EW1_BYPwLrj7KWWSWY52-5">
          <mxGeometry relative="1" as="geometry" />
        </mxCell>
        <mxCell id="EW1_BYPwLrj7KWWSWY52-4" value="input no. of rounds&amp;nbsp;" style="shape=parallelogram;perimeter=parallelogramPerimeter;whiteSpace=wrap;html=1;fixedSize=1;" vertex="1" parent="1">
          <mxGeometry x="320" y="200" width="140" height="60" as="geometry" />
        </mxCell>
        <mxCell id="EW1_BYPwLrj7KWWSWY52-8" value="" style="edgeStyle=orthogonalEdgeStyle;rounded=0;orthogonalLoop=1;jettySize=auto;html=1;" edge="1" parent="1" source="EW1_BYPwLrj7KWWSWY52-5" target="EW1_BYPwLrj7KWWSWY52-7">
          <mxGeometry relative="1" as="geometry" />
        </mxCell>
        <mxCell id="EW1_BYPwLrj7KWWSWY52-14" value="" style="edgeStyle=orthogonalEdgeStyle;rounded=0;orthogonalLoop=1;jettySize=auto;html=1;entryX=0.5;entryY=0;entryDx=0;entryDy=0;" edge="1" parent="1" source="EW1_BYPwLrj7KWWSWY52-5" target="EW1_BYPwLrj7KWWSWY52-23">
          <mxGeometry relative="1" as="geometry">
            <mxPoint x="390" y="440" as="targetPoint" />
          </mxGeometry>
        </mxCell>
        <mxCell id="EW1_BYPwLrj7KWWSWY52-5" value="is this value &lt;br&gt;between&lt;br&gt;&amp;nbsp;1 and 10" style="rhombus;whiteSpace=wrap;html=1;" vertex="1" parent="1">
          <mxGeometry x="325" y="300" width="130" height="110" as="geometry" />
        </mxCell>
        <mxCell id="EW1_BYPwLrj7KWWSWY52-7" value="Display error&lt;br&gt;message" style="shape=parallelogram;perimeter=parallelogramPerimeter;whiteSpace=wrap;html=1;fixedSize=1;" vertex="1" parent="1">
          <mxGeometry x="160" y="325" width="120" height="60" as="geometry" />
        </mxCell>
        <mxCell id="EW1_BYPwLrj7KWWSWY52-60" value="" style="edgeStyle=orthogonalEdgeStyle;rounded=0;orthogonalLoop=1;jettySize=auto;html=1;" edge="1" parent="1" source="EW1_BYPwLrj7KWWSWY52-17" target="EW1_BYPwLrj7KWWSWY52-59">
          <mxGeometry relative="1" as="geometry" />
        </mxCell>
        <mxCell id="EW1_BYPwLrj7KWWSWY52-17" value="input user answer" style="shape=parallelogram;perimeter=parallelogramPerimeter;whiteSpace=wrap;html=1;fixedSize=1;" vertex="1" parent="1">
          <mxGeometry x="325" y="550" width="130" height="60" as="geometry" />
        </mxCell>
        <mxCell id="EW1_BYPwLrj7KWWSWY52-66" value="" style="edgeStyle=orthogonalEdgeStyle;rounded=0;orthogonalLoop=1;jettySize=auto;html=1;" edge="1" parent="1" source="EW1_BYPwLrj7KWWSWY52-19" target="EW1_BYPwLrj7KWWSWY52-54">
          <mxGeometry relative="1" as="geometry" />
        </mxCell>
        <mxCell id="EW1_BYPwLrj7KWWSWY52-19" value="computer generate answer using random" style="rounded=0;whiteSpace=wrap;html=1;" vertex="1" parent="1">
          <mxGeometry x="510" y="650" width="120" height="60" as="geometry" />
        </mxCell>
        <mxCell id="EW1_BYPwLrj7KWWSWY52-57" value="" style="edgeStyle=orthogonalEdgeStyle;rounded=0;orthogonalLoop=1;jettySize=auto;html=1;" edge="1" parent="1" source="EW1_BYPwLrj7KWWSWY52-23" target="EW1_BYPwLrj7KWWSWY52-17">
          <mxGeometry relative="1" as="geometry" />
        </mxCell>
        <mxCell id="EW1_BYPwLrj7KWWSWY52-23" value="Display menu of&amp;nbsp;&lt;br&gt;choice (1-3)" style="shape=parallelogram;perimeter=parallelogramPerimeter;whiteSpace=wrap;html=1;fixedSize=1;" vertex="1" parent="1">
          <mxGeometry x="322.5" y="450" width="135" height="60" as="geometry" />
        </mxCell>
        <mxCell id="EW1_BYPwLrj7KWWSWY52-34" value="" style="edgeStyle=orthogonalEdgeStyle;rounded=0;orthogonalLoop=1;jettySize=auto;html=1;" edge="1" parent="1" source="EW1_BYPwLrj7KWWSWY52-31" target="EW1_BYPwLrj7KWWSWY52-32">
          <mxGeometry relative="1" as="geometry" />
        </mxCell>
        <mxCell id="EW1_BYPwLrj7KWWSWY52-31" value="input if want to &lt;br&gt;play again" style="shape=parallelogram;perimeter=parallelogramPerimeter;whiteSpace=wrap;html=1;fixedSize=1;" vertex="1" parent="1">
          <mxGeometry x="147.5" y="1190" width="120" height="60" as="geometry" />
        </mxCell>
        <mxCell id="EW1_BYPwLrj7KWWSWY52-36" value="" style="edgeStyle=orthogonalEdgeStyle;rounded=0;orthogonalLoop=1;jettySize=auto;html=1;" edge="1" parent="1" source="EW1_BYPwLrj7KWWSWY52-32" target="EW1_BYPwLrj7KWWSWY52-35">
          <mxGeometry relative="1" as="geometry" />
        </mxCell>
        <mxCell id="EW1_BYPwLrj7KWWSWY52-32" value="y or no?" style="rhombus;whiteSpace=wrap;html=1;" vertex="1" parent="1">
          <mxGeometry x="157.5" y="1300" width="100" height="90" as="geometry" />
        </mxCell>
        <mxCell id="EW1_BYPwLrj7KWWSWY52-40" value="" style="edgeStyle=orthogonalEdgeStyle;rounded=0;orthogonalLoop=1;jettySize=auto;html=1;" edge="1" parent="1" source="EW1_BYPwLrj7KWWSWY52-35" target="EW1_BYPwLrj7KWWSWY52-39">
          <mxGeometry relative="1" as="geometry" />
        </mxCell>
        <mxCell id="EW1_BYPwLrj7KWWSWY52-35" value="display thank&lt;br&gt;you for playing" style="shape=parallelogram;perimeter=parallelogramPerimeter;whiteSpace=wrap;html=1;fixedSize=1;" vertex="1" parent="1">
          <mxGeometry x="147.5" y="1430" width="120" height="60" as="geometry" />
        </mxCell>
        <mxCell id="EW1_BYPwLrj7KWWSWY52-37" value="" style="endArrow=classic;html=1;rounded=0;exitX=1;exitY=0.5;exitDx=0;exitDy=0;entryX=1;entryY=0.5;entryDx=0;entryDy=0;" edge="1" parent="1" source="EW1_BYPwLrj7KWWSWY52-32" target="EW1_BYPwLrj7KWWSWY52-4">
          <mxGeometry width="50" height="50" relative="1" as="geometry">
            <mxPoint x="520" y="1070" as="sourcePoint" />
            <mxPoint x="580" y="220" as="targetPoint" />
            <Array as="points">
              <mxPoint x="760" y="1345" />
              <mxPoint x="760" y="650" />
              <mxPoint x="760" y="230" />
            </Array>
          </mxGeometry>
        </mxCell>
        <mxCell id="EW1_BYPwLrj7KWWSWY52-39" value="Stop" style="ellipse;whiteSpace=wrap;html=1;" vertex="1" parent="1">
          <mxGeometry x="147.5" y="1530" width="120" height="50" as="geometry" />
        </mxCell>
        <mxCell id="EW1_BYPwLrj7KWWSWY52-48" value="False" style="text;html=1;strokeColor=none;fillColor=none;align=center;verticalAlign=middle;whiteSpace=wrap;rounded=0;" vertex="1" parent="1">
          <mxGeometry x="272.5" y="325" width="60" height="30" as="geometry" />
        </mxCell>
        <mxCell id="EW1_BYPwLrj7KWWSWY52-104" value="" style="edgeStyle=orthogonalEdgeStyle;rounded=0;orthogonalLoop=1;jettySize=auto;html=1;" edge="1" parent="1" source="EW1_BYPwLrj7KWWSWY52-53" target="EW1_BYPwLrj7KWWSWY52-102">
          <mxGeometry relative="1" as="geometry" />
        </mxCell>
        <mxCell id="EW1_BYPwLrj7KWWSWY52-53" value="is the no.of&lt;br&gt;rounds &amp;gt;&amp;nbsp;&lt;br&gt;counter?" style="rhombus;whiteSpace=wrap;html=1;" vertex="1" parent="1">
          <mxGeometry x="150" y="935" width="115" height="100" as="geometry" />
        </mxCell>
        <mxCell id="EW1_BYPwLrj7KWWSWY52-70" value="" style="edgeStyle=orthogonalEdgeStyle;rounded=0;orthogonalLoop=1;jettySize=auto;html=1;" edge="1" parent="1" source="EW1_BYPwLrj7KWWSWY52-54" target="EW1_BYPwLrj7KWWSWY52-67">
          <mxGeometry relative="1" as="geometry" />
        </mxCell>
        <mxCell id="EW1_BYPwLrj7KWWSWY52-54" value="compare comp and user choice" style="rounded=0;whiteSpace=wrap;html=1;" vertex="1" parent="1">
          <mxGeometry x="510" y="750" width="120" height="60" as="geometry" />
        </mxCell>
        <mxCell id="EW1_BYPwLrj7KWWSWY52-61" value="" style="edgeStyle=orthogonalEdgeStyle;rounded=0;orthogonalLoop=1;jettySize=auto;html=1;" edge="1" parent="1" source="EW1_BYPwLrj7KWWSWY52-59" target="EW1_BYPwLrj7KWWSWY52-19">
          <mxGeometry relative="1" as="geometry" />
        </mxCell>
        <mxCell id="EW1_BYPwLrj7KWWSWY52-63" value="" style="edgeStyle=orthogonalEdgeStyle;rounded=0;orthogonalLoop=1;jettySize=auto;html=1;" edge="1" parent="1" source="EW1_BYPwLrj7KWWSWY52-59" target="EW1_BYPwLrj7KWWSWY52-62">
          <mxGeometry relative="1" as="geometry" />
        </mxCell>
        <mxCell id="EW1_BYPwLrj7KWWSWY52-59" value="choice&lt;br&gt;between&lt;br&gt;1-3" style="rhombus;whiteSpace=wrap;html=1;" vertex="1" parent="1">
          <mxGeometry x="530" y="540" width="80" height="80" as="geometry" />
        </mxCell>
        <mxCell id="EW1_BYPwLrj7KWWSWY52-65" value="" style="edgeStyle=orthogonalEdgeStyle;rounded=0;orthogonalLoop=1;jettySize=auto;html=1;" edge="1" parent="1" source="EW1_BYPwLrj7KWWSWY52-62" target="EW1_BYPwLrj7KWWSWY52-23">
          <mxGeometry relative="1" as="geometry" />
        </mxCell>
        <mxCell id="EW1_BYPwLrj7KWWSWY52-62" value="display error&lt;br&gt;not valid choice" style="shape=parallelogram;perimeter=parallelogramPerimeter;whiteSpace=wrap;html=1;fixedSize=1;" vertex="1" parent="1">
          <mxGeometry x="510" y="450" width="120" height="60" as="geometry" />
        </mxCell>
        <mxCell id="EW1_BYPwLrj7KWWSWY52-71" value="" style="edgeStyle=orthogonalEdgeStyle;rounded=0;orthogonalLoop=1;jettySize=auto;html=1;" edge="1" parent="1" source="EW1_BYPwLrj7KWWSWY52-67" target="EW1_BYPwLrj7KWWSWY52-68">
          <mxGeometry relative="1" as="geometry" />
        </mxCell>
        <mxCell id="EW1_BYPwLrj7KWWSWY52-74" value="" style="edgeStyle=orthogonalEdgeStyle;rounded=0;orthogonalLoop=1;jettySize=auto;html=1;" edge="1" parent="1" source="EW1_BYPwLrj7KWWSWY52-67" target="EW1_BYPwLrj7KWWSWY52-73">
          <mxGeometry relative="1" as="geometry" />
        </mxCell>
        <mxCell id="EW1_BYPwLrj7KWWSWY52-67" value="if tie" style="rhombus;whiteSpace=wrap;html=1;" vertex="1" parent="1">
          <mxGeometry x="530" y="840" width="80" height="80" as="geometry" />
        </mxCell>
        <mxCell id="EW1_BYPwLrj7KWWSWY52-72" value="" style="edgeStyle=orthogonalEdgeStyle;rounded=0;orthogonalLoop=1;jettySize=auto;html=1;" edge="1" parent="1" source="EW1_BYPwLrj7KWWSWY52-68" target="EW1_BYPwLrj7KWWSWY52-69">
          <mxGeometry relative="1" as="geometry" />
        </mxCell>
        <mxCell id="EW1_BYPwLrj7KWWSWY52-76" value="" style="edgeStyle=orthogonalEdgeStyle;rounded=0;orthogonalLoop=1;jettySize=auto;html=1;" edge="1" parent="1" source="EW1_BYPwLrj7KWWSWY52-68" target="EW1_BYPwLrj7KWWSWY52-75">
          <mxGeometry relative="1" as="geometry" />
        </mxCell>
        <mxCell id="EW1_BYPwLrj7KWWSWY52-68" value="if comp win" style="rhombus;whiteSpace=wrap;html=1;" vertex="1" parent="1">
          <mxGeometry x="530" y="945" width="80" height="80" as="geometry" />
        </mxCell>
        <mxCell id="EW1_BYPwLrj7KWWSWY52-78" value="" style="edgeStyle=orthogonalEdgeStyle;rounded=0;orthogonalLoop=1;jettySize=auto;html=1;" edge="1" parent="1" source="EW1_BYPwLrj7KWWSWY52-69" target="EW1_BYPwLrj7KWWSWY52-77">
          <mxGeometry relative="1" as="geometry" />
        </mxCell>
        <mxCell id="EW1_BYPwLrj7KWWSWY52-69" value="if user win" style="rhombus;whiteSpace=wrap;html=1;" vertex="1" parent="1">
          <mxGeometry x="530" y="1060" width="80" height="80" as="geometry" />
        </mxCell>
        <mxCell id="EW1_BYPwLrj7KWWSWY52-73" value="update tie score&lt;br&gt;and counter" style="rounded=0;whiteSpace=wrap;html=1;" vertex="1" parent="1">
          <mxGeometry x="340" y="850" width="120" height="60" as="geometry" />
        </mxCell>
        <mxCell id="EW1_BYPwLrj7KWWSWY52-75" value="update computer win score and counter" style="rounded=0;whiteSpace=wrap;html=1;" vertex="1" parent="1">
          <mxGeometry x="340" y="955" width="120" height="60" as="geometry" />
        </mxCell>
        <mxCell id="EW1_BYPwLrj7KWWSWY52-77" value="update user win score and counter" style="rounded=0;whiteSpace=wrap;html=1;" vertex="1" parent="1">
          <mxGeometry x="340" y="1070" width="120" height="60" as="geometry" />
        </mxCell>
        <mxCell id="EW1_BYPwLrj7KWWSWY52-80" value="" style="endArrow=classic;html=1;rounded=0;exitX=0;exitY=0.5;exitDx=0;exitDy=0;entryX=1;entryY=0;entryDx=0;entryDy=0;" edge="1" parent="1" source="EW1_BYPwLrj7KWWSWY52-73" target="EW1_BYPwLrj7KWWSWY52-53">
          <mxGeometry width="50" height="50" relative="1" as="geometry">
            <mxPoint x="410" y="800" as="sourcePoint" />
            <mxPoint x="460" y="750" as="targetPoint" />
          </mxGeometry>
        </mxCell>
        <mxCell id="EW1_BYPwLrj7KWWSWY52-81" value="" style="endArrow=classic;html=1;rounded=0;exitX=0;exitY=0.5;exitDx=0;exitDy=0;entryX=1;entryY=0.5;entryDx=0;entryDy=0;" edge="1" parent="1" source="EW1_BYPwLrj7KWWSWY52-75" target="EW1_BYPwLrj7KWWSWY52-53">
          <mxGeometry width="50" height="50" relative="1" as="geometry">
            <mxPoint x="410" y="800" as="sourcePoint" />
            <mxPoint x="460" y="750" as="targetPoint" />
          </mxGeometry>
        </mxCell>
        <mxCell id="EW1_BYPwLrj7KWWSWY52-82" value="" style="endArrow=classic;html=1;rounded=0;exitX=0;exitY=0.5;exitDx=0;exitDy=0;entryX=1;entryY=1;entryDx=0;entryDy=0;" edge="1" parent="1" source="EW1_BYPwLrj7KWWSWY52-77" target="EW1_BYPwLrj7KWWSWY52-53">
          <mxGeometry width="50" height="50" relative="1" as="geometry">
            <mxPoint x="410" y="800" as="sourcePoint" />
            <mxPoint x="460" y="750" as="targetPoint" />
          </mxGeometry>
        </mxCell>
        <mxCell id="EW1_BYPwLrj7KWWSWY52-83" value="" style="endArrow=classic;html=1;rounded=0;exitX=0.5;exitY=0;exitDx=0;exitDy=0;entryX=0;entryY=0.5;entryDx=0;entryDy=0;" edge="1" parent="1" source="EW1_BYPwLrj7KWWSWY52-53" target="EW1_BYPwLrj7KWWSWY52-23">
          <mxGeometry width="50" height="50" relative="1" as="geometry">
            <mxPoint x="210" y="910" as="sourcePoint" />
            <mxPoint x="210" y="450" as="targetPoint" />
            <Array as="points">
              <mxPoint x="210" y="480" />
            </Array>
          </mxGeometry>
        </mxCell>
        <mxCell id="EW1_BYPwLrj7KWWSWY52-86" value="" style="endArrow=classic;html=1;rounded=0;exitX=0;exitY=0.5;exitDx=0;exitDy=0;entryX=0;entryY=0.5;entryDx=0;entryDy=0;" edge="1" parent="1" source="EW1_BYPwLrj7KWWSWY52-7" target="EW1_BYPwLrj7KWWSWY52-39">
          <mxGeometry width="50" height="50" relative="1" as="geometry">
            <mxPoint x="120" y="580" as="sourcePoint" />
            <mxPoint x="460" y="950" as="targetPoint" />
            <Array as="points">
              <mxPoint x="100" y="355" />
              <mxPoint x="100" y="1555" />
            </Array>
          </mxGeometry>
        </mxCell>
        <mxCell id="EW1_BYPwLrj7KWWSWY52-87" value="True" style="text;html=1;strokeColor=none;fillColor=none;align=center;verticalAlign=middle;whiteSpace=wrap;rounded=0;" vertex="1" parent="1">
          <mxGeometry x="390" y="410" width="60" height="30" as="geometry" />
        </mxCell>
        <mxCell id="EW1_BYPwLrj7KWWSWY52-88" value="False" style="text;html=1;strokeColor=none;fillColor=none;align=center;verticalAlign=middle;whiteSpace=wrap;rounded=0;" vertex="1" parent="1">
          <mxGeometry x="570" y="520" width="60" height="30" as="geometry" />
        </mxCell>
        <mxCell id="EW1_BYPwLrj7KWWSWY52-89" value="True" style="text;html=1;strokeColor=none;fillColor=none;align=center;verticalAlign=middle;whiteSpace=wrap;rounded=0;" vertex="1" parent="1">
          <mxGeometry x="560" y="620" width="60" height="30" as="geometry" />
        </mxCell>
        <mxCell id="EW1_BYPwLrj7KWWSWY52-90" value="True" style="text;html=1;strokeColor=none;fillColor=none;align=center;verticalAlign=middle;whiteSpace=wrap;rounded=0;" vertex="1" parent="1">
          <mxGeometry x="470" y="850" width="60" height="30" as="geometry" />
        </mxCell>
        <mxCell id="EW1_BYPwLrj7KWWSWY52-91" value="True" style="text;html=1;strokeColor=none;fillColor=none;align=center;verticalAlign=middle;whiteSpace=wrap;rounded=0;" vertex="1" parent="1">
          <mxGeometry x="470" y="945" width="60" height="30" as="geometry" />
        </mxCell>
        <mxCell id="EW1_BYPwLrj7KWWSWY52-92" value="True" style="text;html=1;strokeColor=none;fillColor=none;align=center;verticalAlign=middle;whiteSpace=wrap;rounded=0;" vertex="1" parent="1">
          <mxGeometry x="470" y="1060" width="60" height="30" as="geometry" />
        </mxCell>
        <mxCell id="EW1_BYPwLrj7KWWSWY52-95" value="False" style="text;html=1;strokeColor=none;fillColor=none;align=center;verticalAlign=middle;whiteSpace=wrap;rounded=0;" vertex="1" parent="1">
          <mxGeometry x="570" y="915" width="60" height="30" as="geometry" />
        </mxCell>
        <mxCell id="EW1_BYPwLrj7KWWSWY52-96" value="False" style="text;html=1;strokeColor=none;fillColor=none;align=center;verticalAlign=middle;whiteSpace=wrap;rounded=0;" vertex="1" parent="1">
          <mxGeometry x="570" y="1030" width="60" height="30" as="geometry" />
        </mxCell>
        <mxCell id="EW1_BYPwLrj7KWWSWY52-97" value="True" style="text;html=1;strokeColor=none;fillColor=none;align=center;verticalAlign=middle;whiteSpace=wrap;rounded=0;" vertex="1" parent="1">
          <mxGeometry x="147.5" y="765" width="60" height="30" as="geometry" />
        </mxCell>
        <mxCell id="EW1_BYPwLrj7KWWSWY52-98" value="False" style="text;html=1;strokeColor=none;fillColor=none;align=center;verticalAlign=middle;whiteSpace=wrap;rounded=0;" vertex="1" parent="1">
          <mxGeometry x="150" y="1050" width="60" height="30" as="geometry" />
        </mxCell>
        <mxCell id="EW1_BYPwLrj7KWWSWY52-99" value="Yes" style="text;html=1;strokeColor=none;fillColor=none;align=center;verticalAlign=middle;whiteSpace=wrap;rounded=0;" vertex="1" parent="1">
          <mxGeometry x="370" y="1310" width="60" height="30" as="geometry" />
        </mxCell>
        <mxCell id="EW1_BYPwLrj7KWWSWY52-100" value="No" style="text;html=1;strokeColor=none;fillColor=none;align=center;verticalAlign=middle;whiteSpace=wrap;rounded=0;" vertex="1" parent="1">
          <mxGeometry x="197.5" y="1390" width="60" height="30" as="geometry" />
        </mxCell>
        <mxCell id="EW1_BYPwLrj7KWWSWY52-105" value="" style="edgeStyle=orthogonalEdgeStyle;rounded=0;orthogonalLoop=1;jettySize=auto;html=1;" edge="1" parent="1" source="EW1_BYPwLrj7KWWSWY52-102" target="EW1_BYPwLrj7KWWSWY52-31">
          <mxGeometry relative="1" as="geometry" />
        </mxCell>
        <mxCell id="EW1_BYPwLrj7KWWSWY52-102" value="Display final score&lt;br&gt;and winner" style="shape=parallelogram;perimeter=parallelogramPerimeter;whiteSpace=wrap;html=1;fixedSize=1;" vertex="1" parent="1">
          <mxGeometry x="147.5" y="1090" width="120" height="60" as="geometry" />
        </mxCell>
      </root>
    </mxGraphModel>
  </diagram>
</mxfile>
